<svg width="704" height="572" viewBox="0 0 704 572" fill="none" xmlns="http://www.w3.org/2000/svg">
<g clip-path="url(#clip0_42_3014)">
<path d="M49.1113 569.332H701.534" stroke="#2A002E" stroke-width="2.5" stroke-miterlimit="10" stroke-linecap="round" stroke-linejoin="round"/>
<path d="M31.2341 569.332H2.46582" stroke="#2A002E" stroke-width="2.5" stroke-miterlimit="10" stroke-linecap="round" stroke-linejoin="round"/>
<path d="M515.326 299.03C597.489 286.018 653.535 208.945 640.508 126.881C627.481 44.8174 550.314 -11.1607 468.151 1.85053C385.988 14.8617 329.942 91.9352 342.969 173.999C355.996 256.063 433.163 312.041 515.326 299.03Z" fill="#FFCC69"/>
<path d="M430.701 224.121C428.646 213.653 424.742 205.033 420.221 197.029C416.934 191.077 413.029 185.536 409.331 179.789C408.098 177.942 407.07 175.89 405.837 173.837C403.577 169.938 401.728 165.217 401.728 159.265C401.933 153.313 403.577 148.593 406.043 144.899C410.153 138.536 416.728 133.405 425.975 131.969C433.373 130.942 440.359 132.789 445.291 135.663C449.401 137.92 452.483 141.204 454.743 144.899C457.209 148.798 458.853 153.313 459.059 159.265C459.059 162.344 458.648 165.217 457.826 167.475C457.209 169.938 455.976 171.785 454.949 174.042C452.894 178.147 450.428 182.047 447.962 185.741C440.77 196.824 433.784 208.317 430.701 224.121Z" fill="#F1626C" stroke="#2A002E" stroke-width="0.75" stroke-miterlimit="10" stroke-linecap="round" stroke-linejoin="round"/>
<path d="M440.565 160.086C440.565 165.628 436.044 169.938 430.701 169.938C425.153 169.938 420.838 165.423 420.838 160.086C420.838 154.545 425.359 150.235 430.701 150.235C436.249 150.235 440.565 154.75 440.565 160.086Z" fill="#2A002E"/>
<path d="M496.869 422.792C496.663 349.522 534.473 305.395 534.473 305.395C542.281 304.78 547.213 310.116 547.213 310.116C547.213 310.116 524.609 352.806 535.911 421.56C535.911 421.56 537.555 431.207 520.5 433.67C513.307 434.696 507.759 433.875 504.061 432.849C499.951 431.207 496.869 427.307 496.869 422.792Z" fill="#FFCC69" stroke="#2A002E" stroke-width="0.75" stroke-miterlimit="10" stroke-linecap="round" stroke-linejoin="round"/>
<path d="M508.581 353.626C508.581 353.626 515.157 357.526 523.787 358.552C523.787 358.552 515.979 362.452 506.321 360.194C506.321 360.399 508.17 354.858 508.581 353.626Z" fill="#2A002E" stroke="#2A002E" stroke-width="0.75" stroke-miterlimit="10" stroke-linecap="round" stroke-linejoin="round"/>
<path d="M536.528 344.596C536.528 344.596 531.596 346.033 525.431 344.596C525.431 344.596 530.979 347.264 535.911 347.675L536.528 344.596Z" fill="#2A002E" stroke="#2A002E" stroke-width="0.75" stroke-miterlimit="10" stroke-linecap="round" stroke-linejoin="round"/>
<path d="M532.829 384.207C532.829 384.207 527.897 388.312 514.951 386.875C514.951 386.875 520.91 390.569 533.034 391.39L532.829 384.207Z" fill="#2A002E" stroke="#2A002E" stroke-width="0.75" stroke-miterlimit="10" stroke-linecap="round" stroke-linejoin="round"/>
<path d="M497.485 406.988C497.485 406.988 505.499 409.246 516.801 406.578C516.801 406.578 505.91 412.325 497.279 410.683L497.485 406.988Z" fill="#2A002E" stroke="#2A002E" stroke-width="0.75" stroke-miterlimit="10" stroke-linecap="round" stroke-linejoin="round"/>
<path d="M565.296 241.977C570.022 247.928 572.283 255.933 570.639 263.937C567.762 278.304 553.583 287.745 538.994 284.871C552.35 278.919 561.392 251.007 561.392 251.007C561.392 251.007 563.036 253.88 562.625 257.78C562.625 257.575 566.324 250.597 565.296 241.977Z" fill="#2A002E" stroke="#2A002E" stroke-width="0.75" stroke-miterlimit="10" stroke-linecap="round" stroke-linejoin="round"/>
<path d="M540.637 302.932C547.213 296.57 551.734 287.95 552.967 278.099C555.638 255.522 539.61 235.204 517.006 232.536C506.732 231.304 496.869 233.972 488.854 239.514C488.854 239.514 500.773 237.051 509.198 240.54C509.198 240.54 506.321 241.361 504.266 243.824C504.266 243.824 511.253 244.85 517.212 248.955C523.171 253.059 532.418 256.138 532.418 256.138C532.418 256.138 528.308 255.317 525.226 256.138C525.226 256.138 530.363 260.038 531.185 264.963C532.007 269.889 535.5 275.02 538.377 276.662C538.377 276.662 535.5 275.43 533.24 275.636C533.24 275.225 531.596 284.666 540.637 302.932Z" fill="#2A002E" stroke="#2A002E" stroke-width="0.75" stroke-miterlimit="10" stroke-linecap="round" stroke-linejoin="round"/>
<path d="M503.855 268.247C483.512 264.142 463.374 273.789 453.716 290.824C453.305 290.824 453.1 291.029 453.1 291.029C460.703 270.505 482.484 257.78 504.677 262.295C524.609 266.4 538.788 282.819 540.843 301.906C540.637 301.906 540.432 301.906 540.226 302.112C535.5 285.487 521.938 271.942 503.855 268.247Z" fill="#2A002E" stroke="#2A002E" stroke-width="0.75" stroke-miterlimit="10" stroke-linecap="round" stroke-linejoin="round"/>
<path d="M453.511 290.823C463.374 273.789 483.306 263.937 503.65 268.247C521.733 271.941 535.295 285.487 539.815 302.112C534.678 303.138 517.006 302.317 501.595 295.133C485.567 287.745 470.155 289.797 470.155 289.797C470.772 285.898 474.47 283.435 474.47 283.435C466.251 288.155 456.182 290.413 453.511 290.823Z" fill="#2A002E" stroke="#2A002E" stroke-width="0.75" stroke-miterlimit="10" stroke-linecap="round" stroke-linejoin="round"/>
<path d="M596.53 281.382C573.926 276.251 551.323 285.898 538.788 303.959C538.582 303.959 538.582 303.959 538.377 303.959C548.446 280.972 573.721 267.631 598.996 273.378C627.764 279.946 645.641 308.474 639.066 337.207C639.066 337.207 639.066 337.207 638.86 337.207C640.093 311.142 622.627 287.334 596.53 281.382Z" fill="#56B3AB" stroke="#2A002E" stroke-width="0.75" stroke-miterlimit="10" stroke-linecap="round" stroke-linejoin="round"/>
<path d="M596.53 281.382C622.832 287.334 640.299 311.142 639.271 337.002C638.244 336.591 631.874 332.897 628.791 326.945C628.791 326.945 629.613 330.229 628.38 334.539C628.38 334.539 609.886 322.225 598.585 303.753C598.585 303.753 597.352 309.5 599.612 312.579C599.612 312.579 581.118 307.653 575.365 293.697C575.365 293.697 568.789 307.037 539.199 303.753C551.117 285.897 573.721 276.251 596.53 281.382Z" fill="#56B3AB" stroke="#2A002E" stroke-width="0.75" stroke-miterlimit="10" stroke-linecap="round" stroke-linejoin="round"/>
<path d="M605.982 370.456C603.927 380.718 599.201 389.748 592.625 396.932C592.42 397.137 592.214 397.137 592.009 397.342C587.899 384.823 591.803 371.277 591.803 371.277C589.132 376.613 584.817 378.255 584.817 378.255C584.817 378.255 585.639 367.172 577.008 354.242C568.378 341.312 573.721 330.435 573.721 330.435C570.227 331.461 567.761 338.234 567.761 338.234C560.158 333.924 556.049 325.098 552.35 316.273C549.062 308.474 537.966 306.832 535.294 306.627C543.925 303.959 553.377 303.343 562.83 305.19C592.625 311.142 611.941 340.491 605.982 370.456Z" fill="#56B3AB" stroke="#2A002E" stroke-width="0.75" stroke-miterlimit="10" stroke-linecap="round" stroke-linejoin="round"/>
<path d="M574.132 298.828C603.311 304.78 622.01 333.103 616.051 362.246C612.969 377.024 604.133 389.133 592.42 396.727C598.996 389.543 603.722 380.513 605.777 370.251C611.941 340.286 592.42 310.937 562.419 304.78C552.966 302.932 543.514 303.548 534.884 306.216C534.473 306.216 534.267 306.216 534.267 306.216C545.774 299.033 559.953 295.954 574.132 298.828Z" fill="#56B3AB" stroke="#2A002E" stroke-width="0.75" stroke-miterlimit="10" stroke-linecap="round" stroke-linejoin="round"/>
<path d="M494.814 327.151C494.608 326.74 494.608 326.535 494.403 326.125C494.403 326.125 494.608 326.33 494.814 327.151Z" stroke="#2A002E" stroke-width="0.75" stroke-miterlimit="10" stroke-linecap="round" stroke-linejoin="round"/>
<path d="M466.662 337.002C472.005 310.526 497.896 293.491 524.199 298.827C529.747 300.059 534.884 302.111 539.61 304.779C537.555 306.832 526.459 316.273 516.185 317.299C516.185 317.299 513.924 312.168 510.226 310.526C510.226 310.526 511.869 316.067 508.376 320.788C504.883 325.714 501.39 331.05 501.184 333.923C501.184 333.923 496.252 331.255 494.608 326.945C494.403 326.329 494.197 325.919 494.197 325.919C494.197 326.329 494.403 326.535 494.608 326.945C495.43 329.818 497.074 338.028 492.759 345.211C487.416 354.037 487.005 359.373 487.005 359.373C487.005 359.373 483.923 357.731 482.485 355.473C482.485 355.473 483.307 369.224 476.937 378.05C467.895 366.967 463.58 351.984 466.662 337.002Z" fill="#56B3AB" stroke="#2A002E" stroke-width="0.75" stroke-miterlimit="10" stroke-linecap="round" stroke-linejoin="round"/>
<path d="M514.952 290.823C524.815 292.876 533.445 297.801 540.021 304.369C540.021 304.369 539.815 304.574 539.61 304.779C534.884 301.906 529.747 299.854 524.198 298.828C497.691 293.491 472.005 310.526 466.662 337.002C463.58 352.19 467.895 366.967 477.142 378.05C477.142 378.255 476.936 378.255 476.936 378.46C461.73 367.582 453.511 348.495 457.621 328.998C462.758 302.522 488.649 285.487 514.952 290.823Z" fill="#2A002E" stroke="#2A002E" stroke-width="0.75" stroke-miterlimit="10" stroke-linecap="round" stroke-linejoin="round"/>
<path d="M272.065 424.639C265.079 334.95 214.323 284.871 214.323 284.871C204.871 284.871 199.323 292.055 199.323 292.055C199.323 292.055 231.173 342.133 224.187 427.102C224.187 427.102 223.159 439.006 244.119 440.237C253.16 440.853 259.531 439.416 264.051 437.569C269.188 435.311 272.476 430.18 272.065 424.639Z" fill="#FFCC69" stroke="#2A002E" stroke-width="0.75" stroke-miterlimit="10" stroke-linecap="round" stroke-linejoin="round"/>
<path d="M250.9 341.517C250.9 341.517 243.297 346.854 232.817 349.111C232.817 349.111 242.681 353.216 254.188 349.522C254.188 349.316 251.517 342.749 250.9 341.517Z" fill="#2A002E" stroke="#2A002E" stroke-width="0.75" stroke-miterlimit="10" stroke-linecap="round" stroke-linejoin="round"/>
<path d="M215.967 333.102C215.967 333.102 222.132 334.334 229.529 332.076C229.529 332.076 223.159 335.77 216.995 336.797L215.967 333.102Z" fill="#2A002E" stroke="#2A002E" stroke-width="0.75" stroke-miterlimit="10" stroke-linecap="round" stroke-linejoin="round"/>
<path d="M224.392 381.128C224.392 381.128 230.762 385.849 246.585 382.565C246.585 382.565 239.598 387.696 225.009 389.953L224.392 381.128Z" fill="#2A002E" stroke="#2A002E" stroke-width="0.75" stroke-miterlimit="10" stroke-linecap="round" stroke-linejoin="round"/>
<path d="M269.805 405.552C269.805 405.552 260.147 409.246 246.174 406.988C246.174 406.988 260.147 412.94 270.421 410.067L269.805 405.552Z" fill="#2A002E" stroke="#2A002E" stroke-width="0.75" stroke-miterlimit="10" stroke-linecap="round" stroke-linejoin="round"/>
<path d="M170.76 210.575C165.417 218.374 163.568 228.225 166.445 238.077C171.376 255.522 189.665 265.579 207.131 260.448C190.281 254.291 176.513 221.247 176.513 221.247C176.513 221.247 174.87 224.942 175.692 229.457C175.486 229.457 170.143 221.247 170.76 210.575Z" fill="#2A002E" stroke="#2A002E" stroke-width="0.75" stroke-miterlimit="10" stroke-linecap="round" stroke-linejoin="round"/>
<path d="M206.72 282.408C198.089 275.225 191.514 265.168 189.254 253.47C183.705 226.173 201.377 199.697 228.707 194.156C241.242 191.693 253.571 193.951 263.64 199.903C263.64 199.903 248.845 198.055 238.776 202.981C238.776 202.981 242.269 203.597 245.146 206.47C245.146 206.47 236.516 208.523 229.94 214.064C223.159 219.605 212.063 224.326 212.063 224.326C212.063 224.326 216.994 222.889 220.899 223.505C220.899 223.505 215.145 228.841 214.528 234.793C213.912 240.745 210.213 247.518 206.925 249.776C206.925 249.776 210.213 248.134 213.09 247.928C213.09 247.928 216.172 259.422 206.72 282.408Z" fill="#2A002E" stroke="#2A002E" stroke-width="0.75" stroke-miterlimit="10" stroke-linecap="round" stroke-linejoin="round"/>
<path d="M248.229 236.435C272.682 229.457 298.162 239.308 311.93 259.217C312.341 259.217 312.752 259.217 312.752 259.217C301.45 234.793 273.709 221.658 246.996 229.252C223.159 236.23 207.337 257.78 206.926 281.382C207.131 281.382 207.542 281.382 207.748 281.588C211.447 260.653 226.653 242.797 248.229 236.435Z" fill="#2A002E" stroke="#2A002E" stroke-width="0.75" stroke-miterlimit="10" stroke-linecap="round" stroke-linejoin="round"/>
<path d="M311.93 259.216C298.162 239.308 272.887 229.457 248.229 236.435C226.447 242.797 211.241 260.653 207.337 281.382C213.913 281.998 235.078 279.33 253.366 269.273C272.271 258.601 291.176 259.627 291.176 259.627C290.148 254.906 285.217 252.238 285.217 252.238C296.108 257.164 308.848 258.806 311.93 259.216Z" fill="#56B3AB" stroke="#2A002E" stroke-width="0.75" stroke-miterlimit="10" stroke-linecap="round" stroke-linejoin="round"/>
<path d="M136.443 261.679C163.568 253.059 192.131 262.706 209.186 283.435C209.391 283.435 209.391 283.435 209.597 283.435C195.007 256.343 162.746 242.592 132.334 252.238C97.8118 263.116 78.907 299.649 89.5923 334.129C89.5923 334.129 89.5923 334.129 89.7978 334.129C85.8935 302.317 105.004 271.531 136.443 261.679Z" fill="#56B3AB" stroke="#2A002E" stroke-width="0.75" stroke-miterlimit="10" stroke-linecap="round" stroke-linejoin="round"/>
<path d="M136.444 261.679C105.004 271.531 85.8936 302.317 89.7979 333.923C90.8253 333.308 98.4284 328.382 101.716 320.583C101.716 320.583 101.1 324.482 102.949 329.819C102.949 329.819 124.525 312.989 136.444 289.181C136.444 289.181 138.704 296.159 136.033 300.059C136.033 300.059 158.225 292.055 163.773 274.609C163.773 274.609 173.02 290.208 209.186 283.435C192.131 262.706 163.568 253.059 136.444 261.679Z" fill="#56B3AB" stroke="#2A002E" stroke-width="0.75" stroke-miterlimit="10" stroke-linecap="round" stroke-linejoin="round"/>
<path d="M133.772 371.482C137.265 383.796 144.047 394.263 152.883 402.473C153.088 402.678 153.499 402.678 153.704 402.883C157.609 387.08 151.239 370.866 151.239 370.866C154.937 377.023 160.486 378.665 160.486 378.665C160.486 378.665 158.431 365.325 167.678 348.701C176.925 332.076 169.322 319.146 169.322 319.146C173.637 319.967 177.336 328.177 177.336 328.177C186.171 322.225 190.281 310.937 194.186 299.649C197.473 289.797 210.83 286.718 214.118 286.103C203.227 283.64 191.72 283.845 180.418 287.129C144.047 297.596 123.292 335.36 133.772 371.482Z" fill="#56B3AB" stroke="#2A002E" stroke-width="0.75" stroke-miterlimit="10" stroke-linecap="round" stroke-linejoin="round"/>
<path d="M165.417 280.972C130.484 291.028 110.141 327.561 120.416 362.657C125.553 380.512 137.676 394.469 152.883 402.473C144.047 394.263 137.471 383.796 133.772 371.482C123.292 335.36 144.252 297.596 180.418 287.129C191.72 283.845 203.432 283.64 214.118 286.103C214.529 286.103 214.94 285.897 214.94 285.897C200.145 278.304 182.473 276.046 165.417 280.972Z" fill="#56B3AB" stroke="#2A002E" stroke-width="0.75" stroke-miterlimit="10" stroke-linecap="round" stroke-linejoin="round"/>
<path d="M265.284 307.448C265.49 307.037 265.49 306.627 265.49 306.216C265.49 306.216 265.49 306.627 265.284 307.448Z" stroke="#2A002E" stroke-width="0.75" stroke-miterlimit="10" stroke-linecap="round" stroke-linejoin="round"/>
<path d="M300.628 316.889C291.381 285.077 258.298 266.81 226.447 276.046C219.666 277.893 213.501 280.972 208.159 284.871C211.036 287.129 225.214 297.801 237.954 298.007C237.954 298.007 240.009 291.439 244.53 289.181C244.53 289.181 243.092 296.159 247.818 301.701C252.749 307.242 257.476 313.399 257.887 317.094C257.887 317.094 263.64 313.399 265.284 307.858C265.49 307.037 265.49 306.627 265.49 306.627C265.49 307.037 265.284 307.448 265.284 307.858C264.668 311.347 263.435 321.609 269.394 330.024C276.791 340.286 277.819 346.648 277.819 346.648C277.819 346.648 281.518 344.185 282.956 341.312C282.956 341.312 283.367 358.347 291.998 368.403C302.066 353.626 305.765 334.95 300.628 316.889Z" fill="#2A002E" stroke="#2A002E" stroke-width="0.75" stroke-miterlimit="10" stroke-linecap="round" stroke-linejoin="round"/>
<path d="M288.71 294.723C294.052 300.88 298.162 308.474 300.422 316.683C305.765 334.95 301.861 353.421 291.792 367.788C291.997 367.993 291.997 368.198 292.203 368.198C309.669 353.421 317.889 329.203 311.108 305.806C301.861 273.994 268.777 255.728 236.927 264.963C225.008 268.452 214.94 275.225 207.542 284.05C207.542 284.05 207.747 284.256 208.158 284.461C213.501 280.561 219.666 277.483 226.447 275.636C249.667 269.068 273.914 277.278 288.71 294.723Z" fill="#2A002E" stroke="#2A002E" stroke-width="0.75" stroke-miterlimit="10" stroke-linecap="round" stroke-linejoin="round"/>
<path d="M312.341 220.632H305.56V300.264H312.341V220.632Z" fill="white" stroke="#2A002E" stroke-miterlimit="10"/>
<path d="M384.878 220.632H378.097V300.264H384.878V220.632Z" fill="white" stroke="#2A002E" stroke-miterlimit="10"/>
<path d="M388.577 213.859C389.399 209.754 385.905 206.06 381.796 206.06H308.848C304.738 206.06 301.245 209.754 302.067 213.859V225.147C302.067 225.352 302.272 225.557 302.478 225.557H315.423C315.629 225.557 315.834 225.352 315.834 225.147V219.195C315.834 218.99 316.04 218.785 316.245 218.785H373.987C374.193 218.785 374.398 218.99 374.398 219.195V225.147C374.398 225.352 374.604 225.557 374.809 225.557H387.755C387.96 225.557 388.166 225.352 388.166 225.147L388.577 213.859Z" fill="#989F97" stroke="#2A002E" stroke-miterlimit="10"/>
<path d="M387.344 295.133H375.631V300.264H387.344V295.133Z" fill="#FFCC69" stroke="#2A002E" stroke-miterlimit="10"/>
<path d="M314.807 295.133H303.094V300.264H314.807V295.133Z" fill="#FFCC69" stroke="#2A002E" stroke-miterlimit="10"/>
<path d="M309.464 295.544V300.47H315.423V298.417C315.423 296.775 316.245 295.133 317.478 294.312C317.684 294.107 317.889 294.107 318.095 294.107H371.727C373.371 294.107 374.809 295.133 374.809 296.365V300.675H380.974V295.544C380.974 291.029 377.275 287.334 372.754 287.334H317.684C309.875 287.129 309.464 295.544 309.464 295.544Z" fill="#56B3AB" stroke="#2A002E" stroke-miterlimit="10"/>
<path d="M403.988 534.647H286.244V544.909H403.988V534.647Z" fill="#989F97" stroke="#2A002E" stroke-miterlimit="10"/>
<path d="M399.057 557.428C399.057 550.861 393.714 545.73 387.344 545.73C380.769 545.73 375.631 551.066 375.631 557.428C375.631 563.996 380.974 569.127 387.344 569.127C393.714 569.332 399.057 563.996 399.057 557.428Z" fill="#2A002E" stroke="#2A002E" stroke-width="0.75" stroke-miterlimit="10"/>
<path d="M387.344 561.533C385.084 561.533 383.44 559.686 383.44 557.633C383.44 555.376 385.289 553.734 387.344 553.734C389.605 553.734 391.248 555.581 391.248 557.633C391.248 559.686 389.399 561.533 387.344 561.533Z" fill="#989F97" stroke="#2A002E" stroke-miterlimit="10"/>
<path d="M314.807 557.428C314.807 550.861 309.464 545.73 303.094 545.73C296.724 545.73 291.381 551.066 291.381 557.428C291.381 563.996 296.724 569.127 303.094 569.127C309.464 569.127 314.807 563.996 314.807 557.428Z" fill="#2A002E" stroke="#2A002E" stroke-width="0.75" stroke-miterlimit="10"/>
<path d="M302.889 561.533C300.628 561.533 298.984 559.686 298.984 557.633C298.984 555.376 300.834 553.734 302.889 553.734C305.149 553.734 306.793 555.581 306.793 557.633C306.793 559.686 305.149 561.533 302.889 561.533Z" fill="#989F97" stroke="#2A002E" stroke-miterlimit="10"/>
<path d="M422.893 534.647H267.545C260.763 534.647 255.215 529.105 255.215 522.332V312.578C255.215 305.806 260.763 300.264 267.545 300.264H422.893C429.674 300.264 435.222 305.806 435.222 312.578V522.332C435.222 529.105 429.674 534.647 422.893 534.647Z" fill="#FFCC69" stroke="#2A002E" stroke-miterlimit="10"/>
<path d="M274.326 513.712V324.277C274.326 321.404 276.586 319.146 279.463 319.146H410.975C413.852 319.146 416.112 321.404 416.112 324.277V513.712C416.112 516.586 413.852 518.843 410.975 518.843H279.463C276.586 518.843 274.326 516.38 274.326 513.712Z" fill="#56B3AB" stroke="#2A002E" stroke-miterlimit="10"/>
<path d="M287.271 337.002V363.067C287.271 388.517 308.026 409.246 333.506 409.246H357.343C382.823 409.246 403.577 388.517 403.577 363.067V337.002H287.271Z" fill="#F1626C" stroke="#2A002E" stroke-miterlimit="10"/>
<path d="M287.066 343.775H403.372" stroke="#2A002E" stroke-miterlimit="10"/>
<path d="M396.59 345.211L398.851 353.831C398.851 355.678 397.207 357.32 395.358 357.32C393.508 357.32 391.864 355.678 391.864 353.831L394.125 345.211C394.536 343.98 396.18 343.98 396.59 345.211Z" fill="white" stroke="#2A002E" stroke-miterlimit="10"/>
<path d="M403.372 424.228V492.778C403.372 499.961 397.618 505.913 390.221 505.913H300.217C293.025 505.913 287.066 500.166 287.066 492.778V424.228H403.372Z" fill="#F1626C" stroke="#2A002E" stroke-miterlimit="10"/>
<path d="M287.066 431.001H403.372" stroke="#2A002E" stroke-miterlimit="10"/>
<path d="M396.59 431.822L398.851 440.442C398.851 442.289 397.207 443.931 395.358 443.931C393.508 443.931 391.864 442.289 391.864 440.442L394.125 431.822C394.536 430.59 396.18 430.59 396.59 431.822Z" fill="white" stroke="#2A002E" stroke-miterlimit="10"/>
<path d="M491.731 411.709C491.731 405.962 493.992 400.626 498.102 396.726C502.211 392.622 507.554 390.569 513.102 390.569H539.61C551.323 390.569 560.981 400.216 560.981 411.914H550.912C550.912 404.936 546.597 400.216 539.61 400.01H538.172H514.335C507.348 400.01 501.8 404.936 501.8 411.914L491.731 411.709Z" fill="#F1626C" stroke="#2A002E" stroke-miterlimit="10"/>
<path d="M616.873 566.869H435.428C428.03 566.869 416.729 555.581 416.729 548.193V430.591C416.729 423.202 429.469 411.914 436.866 411.914H616.873C624.271 411.914 635.573 423.202 635.573 430.591V548.193C635.573 555.581 624.271 566.869 616.873 566.869Z" fill="#F1626C" stroke="#2A002E" stroke-miterlimit="10"/>
<path d="M438.921 409.862C425.77 409.862 415.084 420.534 415.084 433.669V445.778C415.084 446.805 416.523 447.42 417.139 446.599L446.113 411.914C446.935 411.093 446.319 409.862 445.291 409.862H438.921Z" fill="#2A002E" stroke="#2A002E" stroke-width="0.75" stroke-miterlimit="10"/>
<path d="M614.407 410.067C627.558 410.067 638.244 420.739 638.244 433.875V444.752C638.244 445.778 636.805 446.394 636.189 445.573L602.694 412.119C601.872 411.298 602.489 410.067 603.516 410.067H614.407Z" fill="#2A002E" stroke="#2A002E" stroke-width="0.75" stroke-miterlimit="10"/>
<path d="M438.715 568.511C425.564 568.511 414.879 557.839 414.879 544.703V533.826C414.879 532.8 416.317 532.184 416.934 533.005L444.469 566.459C445.291 567.28 444.675 568.511 443.647 568.511H438.715Z" fill="#2A002E" stroke="#2A002E" stroke-width="0.75" stroke-miterlimit="10"/>
<path d="M614.202 568.511C627.353 568.511 638.038 557.839 638.038 544.703V533.826C638.038 532.8 636.6 532.184 635.983 533.005L602.489 566.459C601.667 567.28 602.283 568.511 603.311 568.511H614.202Z" fill="#2A002E" stroke="#2A002E" stroke-width="0.75" stroke-miterlimit="10"/>
<path d="M559.131 523.153C563.652 533.005 559.542 544.704 549.679 549.219C540.021 553.734 528.308 549.629 523.787 539.778C519.267 529.926 523.376 518.228 533.24 513.713C542.898 508.992 554.611 513.302 559.131 523.153Z" fill="white" stroke="#2A002E" stroke-width="0.75" stroke-miterlimit="10"/>
<path d="M537.966 528.079C538.171 528.079 538.171 527.874 537.966 527.669C537.555 527.258 536.939 527.053 536.117 527.053C534.884 527.053 533.445 527.669 532.829 528.695C532.623 529.106 532.418 529.516 532.418 529.927C532.418 529.927 532.418 529.927 532.418 529.721C532.418 528.285 533.034 527.258 533.856 526.643C534.062 526.437 533.856 526.232 533.651 526.232C533.24 526.232 532.623 526.232 532.007 526.643C530.774 527.258 529.952 528.49 529.952 529.927C529.952 530.337 530.157 530.953 530.363 531.363C529.952 531.363 529.335 531.363 528.925 531.568C527.692 532.184 526.87 533.416 526.87 534.852C526.87 535.468 526.87 535.878 527.075 536.494C527.075 536.699 527.486 536.699 527.486 536.494C527.692 535.468 528.514 534.442 529.746 534.031C529.746 534.031 529.746 534.031 529.952 534.031C529.541 534.237 529.335 534.647 529.13 534.852C528.514 535.878 528.514 537.315 528.925 538.547C529.335 539.162 529.746 539.573 530.157 539.983C530.363 540.188 530.568 539.983 530.568 539.778C530.157 538.752 530.363 537.52 531.185 536.289C531.596 535.673 532.007 535.263 532.418 535.057C532.007 535.468 531.801 535.878 531.801 536.494C531.801 537.315 532.212 538.136 533.034 538.547C533.24 538.752 533.651 538.752 533.856 538.752C534.062 538.752 534.062 538.546 534.062 538.341C533.651 537.931 533.24 537.11 533.445 536.289C533.445 535.673 533.651 535.057 534.062 534.647C534.062 534.647 539.815 535.878 543.72 548.193L546.185 547.372C542.076 536.494 535.089 533.416 535.089 533.416C535.295 533.005 535.706 532.389 536.322 532.184C537.144 531.774 537.761 531.774 538.377 531.979C538.582 531.979 538.788 531.774 538.582 531.774C538.377 531.568 538.171 531.363 537.966 531.158C537.35 530.747 536.322 530.542 535.5 530.953C535.089 531.158 534.678 531.568 534.473 532.184C534.473 531.568 534.884 531.158 535.089 530.542C535.706 528.695 536.939 528.079 537.966 528.079Z" fill="#56B3AB"/>
<path d="M537.35 523.359C538.377 522.538 539.61 522.127 541.254 522.333C542.076 522.538 542.692 522.743 543.309 522.948C542.692 522.743 542.076 522.743 541.459 522.948C540.637 523.359 540.021 524.18 539.816 525.206C539.816 525.616 539.816 526.027 539.816 526.232C539.816 526.437 540.227 526.437 540.227 526.232C540.432 525.616 541.048 525.001 541.87 524.59C542.692 524.385 543.309 524.18 543.925 524.385C543.925 524.385 540.638 533.005 546.802 544.703L549.063 543.472C541.459 530.953 545.775 524.59 545.775 524.59C546.391 524.59 547.008 524.795 547.624 525.411C548.446 526.027 548.652 526.848 548.857 527.463C548.857 527.669 549.062 527.669 549.268 527.669C549.473 527.463 549.679 527.053 549.679 526.643C549.884 525.616 549.473 524.59 548.857 523.974C548.446 523.564 547.83 523.359 547.213 523.359C547.83 523.153 548.446 523.153 549.268 523.359C550.912 523.564 551.939 524.385 552.556 525.411C552.761 525.616 552.967 525.616 552.967 525.411C553.172 524.795 552.967 523.974 552.761 523.359C552.145 521.922 550.912 520.896 549.473 520.691C549.062 520.691 548.446 520.691 548.035 520.691C548.035 520.691 548.035 520.691 548.241 520.691C549.679 520.075 550.912 520.075 552.145 520.691C552.35 520.896 552.761 520.485 552.556 520.28C552.35 519.87 551.939 519.254 551.528 518.843C550.295 517.817 548.651 517.612 547.213 518.228C546.597 518.433 546.186 518.843 545.98 519.254C545.775 518.843 545.364 518.228 544.953 517.817C543.72 516.791 542.076 516.586 540.638 517.202C540.021 517.407 539.405 517.817 539.199 518.228C538.994 518.433 539.199 518.843 539.405 518.638C540.637 518.433 541.87 518.843 543.103 519.87C542.692 519.664 542.281 519.459 541.87 519.459C540.432 519.254 538.994 519.87 537.966 521.101C537.35 521.717 537.144 522.538 537.144 523.153C536.939 523.359 537.144 523.564 537.35 523.359Z" fill="#56B3AB"/>
<path d="M555.843 539.983C554.199 542.856 551.733 545.319 548.446 546.756C544.952 548.398 541.254 548.603 537.966 547.987C537.966 547.987 545.158 539.573 555.843 539.983Z" fill="#56B3AB"/>
<path d="M605.777 488.263L581.94 508.992C579.885 510.839 580.501 514.123 583.173 515.149L612.969 525.411C615.64 526.232 618.311 523.974 617.695 521.306L611.736 490.315C611.119 487.647 607.831 486.621 605.777 488.263Z" fill="white" stroke="#2A002E" stroke-width="0.75" stroke-miterlimit="10"/>
<path d="M603.722 507.555L612.352 515.765C613.585 514.944 611.53 511.66 611.53 511.66L608.653 506.94L608.859 506.734L609.27 505.503C609.475 505.092 609.27 504.887 608.859 504.682L608.037 504.477C607.831 504.477 607.626 504.477 607.626 504.477C607.42 504.477 607.42 504.682 607.42 504.887L605.982 502.424V502.219C605.982 502.219 607.42 498.114 607.831 496.883C608.242 495.857 607.215 494.625 607.215 494.625C607.215 494.625 605.776 495.036 605.366 496.062C604.955 497.088 603.516 501.398 603.516 501.398L600.845 502.424C600.845 502.219 600.639 502.014 600.434 501.809L599.612 501.603C599.201 501.398 598.995 501.603 598.79 502.014L598.379 503.245C598.379 503.245 598.379 503.245 598.379 503.451L592.831 505.503C592.831 505.503 589.337 506.734 589.748 508.171L601.667 506.94L599.406 513.712L597.146 514.533C597.146 514.533 596.119 514.944 596.119 515.354L598.995 515.149C598.995 515.56 599.201 515.97 599.612 516.175C600.023 516.381 600.434 516.175 600.639 515.765L602.694 517.817C603.105 517.612 602.489 516.586 602.489 516.586L601.256 514.328L603.722 507.555Z" fill="#2A002E"/>
<path d="M584.406 568.511H573.104C572.488 568.511 571.871 568.101 571.871 567.28V450.499C571.871 449.883 572.282 449.268 573.104 449.268H584.406C585.022 449.268 585.639 449.678 585.639 450.499V567.28C585.639 568.101 585.228 568.511 584.406 568.511Z" fill="#FFCC69" stroke="#2A002E" stroke-width="0.75" stroke-miterlimit="10"/>
<path d="M578.857 460.145C573.926 460.145 570.021 456.041 570.021 451.32V411.709C570.021 410.888 570.638 410.272 571.46 410.272H586.46C587.282 410.272 587.899 410.888 587.899 411.709V451.32C587.693 456.041 583.789 460.145 578.857 460.145Z" fill="#FFCC69" stroke="#2A002E" stroke-width="0.75" stroke-miterlimit="10"/>
<path d="M580.912 442.7C580.912 443.726 580.091 444.753 578.858 444.753C577.83 444.753 576.803 443.932 576.803 442.7C576.803 441.469 577.625 440.648 578.858 440.648C580.091 440.648 580.912 441.469 580.912 442.7Z" fill="#2A002E"/>
<path d="M580.912 432.028C580.912 433.054 580.091 434.08 578.858 434.08C577.83 434.08 576.803 433.259 576.803 432.028C576.803 431.002 577.625 429.975 578.858 429.975C580.091 429.975 580.912 431.002 580.912 432.028Z" fill="#2A002E"/>
<path d="M580.912 421.56C580.912 422.587 580.091 423.613 578.858 423.613C577.83 423.613 576.803 422.792 576.803 421.56C576.803 420.329 577.625 419.508 578.858 419.508C580.091 419.508 580.912 420.329 580.912 421.56Z" fill="#2A002E"/>
<path d="M586.05 442.495H571.666C570.433 442.495 569.405 441.469 569.405 440.237V437.159C569.405 435.927 570.433 434.901 571.666 434.901H586.05C587.283 434.901 588.31 435.927 588.31 437.159V440.237C588.516 441.469 587.488 442.495 586.05 442.495Z" fill="#FFCC69" stroke="#2A002E" stroke-width="0.75" stroke-miterlimit="10"/>
<path d="M480.429 568.511H469.127C468.511 568.511 467.895 568.101 467.895 567.28V450.499C467.895 449.883 468.306 449.268 469.127 449.268H480.429C481.046 449.268 481.662 449.678 481.662 450.499V567.28C481.457 568.101 481.046 568.511 480.429 568.511Z" fill="#FFCC69" stroke="#2A002E" stroke-width="0.75" stroke-miterlimit="10"/>
<path d="M474.676 459.94C469.744 459.94 465.84 456.04 465.84 451.115V412.735C465.84 411.298 467.073 410.067 468.511 410.067H480.84C482.279 410.067 483.512 411.298 483.512 412.735V451.115C483.512 456.04 479.607 459.94 474.676 459.94Z" fill="#FFCC69" stroke="#2A002E" stroke-width="0.75" stroke-miterlimit="10"/>
<path d="M476.731 442.7C476.731 443.932 475.909 444.753 474.676 444.753C473.649 444.753 472.621 443.932 472.621 442.7C472.621 441.469 473.443 440.648 474.676 440.648C475.909 440.648 476.731 441.469 476.731 442.7Z" fill="#2A002E"/>
<path d="M476.731 432.028C476.731 433.259 475.909 434.08 474.676 434.08C473.649 434.08 472.621 433.259 472.621 432.028C472.621 430.796 473.443 429.975 474.676 429.975C475.909 429.975 476.731 431.002 476.731 432.028Z" fill="#2A002E"/>
<path d="M476.731 421.56C476.731 422.792 475.909 423.613 474.676 423.613C473.649 423.613 472.621 422.792 472.621 421.56C472.621 420.329 473.443 419.508 474.676 419.508C475.909 419.508 476.731 420.329 476.731 421.56Z" fill="#2A002E"/>
<path d="M482.073 442.495H467.689C466.456 442.495 465.429 441.469 465.429 440.237V437.159C465.429 435.927 466.456 434.901 467.689 434.901H482.073C483.306 434.901 484.334 435.927 484.334 437.159V440.237C484.334 441.469 483.306 442.495 482.073 442.495Z" fill="#FFCC69" stroke="#2A002E" stroke-width="0.75" stroke-miterlimit="10"/>
<path d="M94.7292 569.948C92.2634 569.948 90.2085 567.895 90.2085 565.433V504.271C90.2085 501.809 92.2634 499.756 94.7292 499.756H295.49C297.956 499.756 300.011 501.809 300.011 504.271V565.433C300.011 567.895 297.956 569.948 295.49 569.948H94.7292Z" fill="#56B3AB"/>
<path d="M295.491 500.577C297.34 500.577 298.984 502.219 298.984 504.066V565.227C298.984 567.074 297.34 568.716 295.491 568.716H94.7293C92.8799 568.716 91.236 567.074 91.236 565.227V504.066C91.236 502.219 92.8799 500.577 94.7293 500.577H295.491ZM295.491 498.525H94.7293C91.647 498.525 89.1812 500.988 89.1812 504.066V565.227C89.1812 568.306 91.647 570.769 94.7293 570.769H295.491C298.573 570.769 301.039 568.306 301.039 565.227V504.066C301.039 500.988 298.367 498.525 295.491 498.525Z" fill="#2A002E"/>
<path d="M90.2085 505.092V504.066C90.2085 501.603 92.2634 499.551 94.7292 499.551H295.49C297.956 499.551 300.011 501.603 300.011 504.066V505.092H90.2085Z" fill="#F1626C"/>
<path d="M295.491 500.577C297.34 500.577 298.984 502.219 298.984 504.066H91.236C91.236 502.219 92.8799 500.577 94.7293 500.577H295.491ZM295.491 498.525H94.7293C91.647 498.525 89.1812 500.988 89.1812 504.066V506.119H91.236H298.984H301.039V504.066C301.039 500.988 298.367 498.525 295.491 498.525Z" fill="#2A002E"/>
<path d="M94.7292 569.948C92.2634 569.948 90.2085 567.895 90.2085 565.433V564.406H300.011V565.433C300.011 567.895 297.956 569.948 295.49 569.948H94.7292Z" fill="#F1626C"/>
<path d="M298.984 565.433C298.984 567.28 297.34 568.922 295.491 568.922H94.7293C92.8799 568.922 91.236 567.28 91.236 565.433H298.984ZM301.039 563.38H298.984H91.236H89.1812V565.433C89.1812 568.511 91.647 570.974 94.7293 570.974H295.491C298.573 570.974 301.039 568.511 301.039 565.433V563.38Z" fill="#2A002E"/>
<path d="M91.4414 522.948H298.778" stroke="#2A002E" stroke-miterlimit="10"/>
<path d="M220.488 538.546L198.089 536.904C196.446 536.904 194.802 536.904 193.158 536.904L169.732 538.546C167.883 538.546 166.444 536.904 166.444 534.647V530.542C166.444 528.49 167.883 526.643 169.732 526.643L193.363 528.079C194.802 528.079 196.446 528.079 197.884 528.079L220.488 526.643C222.337 526.643 223.775 528.284 223.775 530.542V534.647C223.775 536.904 222.337 538.546 220.488 538.546Z" fill="#FFCC69" stroke="#2A002E" stroke-miterlimit="10"/>
<path d="M238.57 539.572H224.803C223.981 539.572 223.364 538.957 223.364 538.136V527.463C223.364 526.642 223.981 526.027 224.803 526.027H238.57C239.392 526.027 240.009 526.642 240.009 527.463V538.136C239.803 538.957 239.187 539.572 238.57 539.572Z" fill="#F1626C" stroke="#2A002E" stroke-miterlimit="10"/>
<path d="M165.417 539.572H151.649C150.827 539.572 150.211 538.957 150.211 538.136V527.463C150.211 526.642 150.827 526.027 151.649 526.027H165.417C166.239 526.027 166.855 526.642 166.855 527.463V538.136C166.855 538.957 166.239 539.572 165.417 539.572Z" fill="#F1626C" stroke="#2A002E" stroke-miterlimit="10"/>
<path d="M281.106 541.625H255.42C254.187 541.625 253.365 540.599 253.365 539.572V528.079C253.365 526.848 254.393 526.027 255.42 526.027H281.106C282.339 526.027 283.161 527.053 283.161 528.079V539.572C283.161 540.804 282.339 541.625 281.106 541.625Z" fill="#2A002E"/>
<path d="M259.324 522.948H265.489V537.52C265.489 538.136 265.078 538.546 264.461 538.546H260.352C259.735 538.546 259.324 538.136 259.324 537.52V522.948Z" fill="white" stroke="#2A002E" stroke-miterlimit="10"/>
<path d="M267.338 522.948H257.68C255.831 522.948 254.393 521.511 254.393 519.664V517.817C254.393 515.97 255.831 514.533 257.68 514.533H267.338C269.188 514.533 270.626 515.97 270.626 517.817V519.664C270.626 521.511 269.188 522.948 267.338 522.948Z" fill="white" stroke="#2A002E" stroke-miterlimit="10"/>
<path d="M108.702 541.625H134.388C135.621 541.625 136.443 540.599 136.443 539.572V528.079C136.443 526.848 135.416 526.027 134.388 526.027H108.702C107.469 526.027 106.647 527.053 106.647 528.079V539.572C106.442 540.804 107.469 541.625 108.702 541.625Z" fill="#2A002E"/>
<path d="M130.278 522.948H124.114V537.52C124.114 538.136 124.525 538.546 125.141 538.546H129.251C129.867 538.546 130.278 538.136 130.278 537.52V522.948Z" fill="white" stroke="#2A002E" stroke-miterlimit="10"/>
<path d="M122.47 522.948H132.128C133.977 522.948 135.416 521.511 135.416 519.664V517.817C135.416 515.97 133.977 514.533 132.128 514.533H122.47C120.621 514.533 119.182 515.97 119.182 517.817V519.664C119.182 521.511 120.621 522.948 122.47 522.948Z" fill="white" stroke="#2A002E" stroke-miterlimit="10"/>
<path d="M111.374 500.167C108.908 500.167 106.853 498.114 106.853 495.652V434.49C106.853 432.028 108.908 429.975 111.374 429.975H312.135C314.601 429.975 316.656 432.028 316.656 434.49V495.652C316.656 498.114 314.601 500.167 312.135 500.167H111.374Z" fill="#989F97"/>
<path d="M311.93 431.001C313.779 431.001 315.423 432.643 315.423 434.49V495.651C315.423 497.499 313.779 499.141 311.93 499.141H111.374C109.524 499.141 107.881 497.499 107.881 495.651V434.49C107.881 432.643 109.524 431.001 111.374 431.001H311.93ZM311.93 428.949H111.374C108.292 428.949 105.826 431.412 105.826 434.49V495.651C105.826 498.73 108.292 501.193 111.374 501.193H312.135C315.217 501.193 317.683 498.73 317.683 495.651V434.49C317.478 431.412 315.012 428.949 311.93 428.949Z" fill="#2A002E"/>
<path d="M106.853 435.517V434.49C106.853 432.028 108.908 429.975 111.374 429.975H312.135C314.601 429.975 316.656 432.028 316.656 434.49V435.517H106.853Z" fill="#FFCC69"/>
<path d="M311.93 431.001C313.779 431.001 315.423 432.643 315.423 434.49H107.881C107.881 432.643 109.524 431.001 111.374 431.001H311.93ZM311.93 428.949H111.374C108.292 428.949 105.826 431.412 105.826 434.49V436.543H107.881H315.628H317.683V434.49C317.478 431.412 315.012 428.949 311.93 428.949Z" fill="#2A002E"/>
<path d="M111.374 500.372C108.908 500.372 106.853 498.32 106.853 495.857V494.831H316.45V495.857C316.45 498.32 314.395 500.372 311.93 500.372H111.374Z" fill="#FFCC69"/>
<path d="M315.423 495.857C315.423 497.704 313.779 499.346 311.93 499.346H111.374C109.524 499.346 107.881 497.704 107.881 495.857H315.423ZM317.478 493.804H315.423H107.881H105.826V495.857C105.826 498.935 108.292 501.398 111.374 501.398H312.135C315.217 501.398 317.683 498.935 317.683 495.857V493.804H317.478Z" fill="#2A002E"/>
<path d="M108.086 453.373H315.217" stroke="#2A002E" stroke-miterlimit="10"/>
<path d="M237.132 468.971L214.734 467.329C213.09 467.329 211.446 467.329 209.802 467.329L186.377 468.971C184.527 468.971 183.089 467.329 183.089 465.071V460.966C183.089 458.914 184.527 457.067 186.377 457.067L210.008 458.503C211.446 458.503 213.09 458.503 214.528 458.503L237.132 457.067C238.981 457.067 240.42 458.709 240.42 460.966V465.071C240.42 467.329 238.776 468.971 237.132 468.971Z" fill="white" stroke="#2A002E" stroke-miterlimit="10"/>
<path d="M255.01 469.997H241.242C240.42 469.997 239.804 469.381 239.804 468.56V457.888C239.804 457.067 240.42 456.451 241.242 456.451H255.01C255.832 456.451 256.448 457.067 256.448 457.888V468.56C256.448 469.381 255.832 469.997 255.01 469.997Z" fill="#56B3AB" stroke="#2A002E" stroke-miterlimit="10"/>
<path d="M182.062 469.997H168.294C167.472 469.997 166.855 469.381 166.855 468.56V457.888C166.855 457.067 167.472 456.451 168.294 456.451H182.062C182.884 456.451 183.5 457.067 183.5 457.888V468.56C183.5 469.381 182.884 469.997 182.062 469.997Z" fill="#56B3AB" stroke="#2A002E" stroke-miterlimit="10"/>
<path d="M297.751 472.049H272.065C270.832 472.049 270.01 471.023 270.01 469.997V458.503C270.01 457.272 271.037 456.451 272.065 456.451H297.751C298.984 456.451 299.805 457.477 299.805 458.503V469.997C299.805 471.023 298.984 472.049 297.751 472.049Z" fill="#FFCC69" stroke="#2A002E" stroke-miterlimit="10"/>
<path d="M275.969 453.373H282.133V467.945C282.133 468.56 281.722 468.971 281.106 468.971H276.996C276.38 468.971 275.969 468.56 275.969 467.945V453.373Z" fill="#FFCC69" stroke="#2A002E" stroke-miterlimit="10"/>
<path d="M283.983 453.372H274.325C272.476 453.372 271.037 451.936 271.037 450.089V448.241C271.037 446.394 272.476 444.958 274.325 444.958H283.983C285.832 444.958 287.271 446.394 287.271 448.241V450.089C287.065 451.936 285.627 453.372 283.983 453.372Z" fill="#FFCC69" stroke="#2A002E" stroke-miterlimit="10"/>
<path d="M125.347 472.049H151.033C152.266 472.049 153.088 471.023 153.088 469.997V458.503C153.088 457.272 152.06 456.451 151.033 456.451H125.347C124.114 456.451 123.292 457.477 123.292 458.503V469.997C123.086 471.023 124.114 472.049 125.347 472.049Z" fill="#FFCC69" stroke="#2A002E" stroke-miterlimit="10"/>
<path d="M146.923 453.373H140.758V467.945C140.758 468.56 141.169 468.971 141.786 468.971H145.895C146.512 468.971 146.923 468.56 146.923 467.945V453.373Z" fill="#FFCC69" stroke="#2A002E" stroke-miterlimit="10"/>
<path d="M139.114 453.372H148.772C150.622 453.372 152.06 451.936 152.06 450.089V448.241C152.06 446.394 150.622 444.958 148.772 444.958H139.114C137.265 444.958 135.827 446.394 135.827 448.241V450.089C135.827 451.936 137.265 453.372 139.114 453.372Z" fill="#FFCC69" stroke="#2A002E" stroke-miterlimit="10"/>
<path d="M659.614 522.948C662.906 522.948 665.573 520.283 665.573 516.996C665.573 513.709 662.906 511.044 659.614 511.044C656.323 511.044 653.655 513.709 653.655 516.996C653.655 520.283 656.323 522.948 659.614 522.948Z" fill="#F1626C"/>
<path d="M674.821 492.778C674.821 490.931 673.177 489.289 671.327 489.289C669.478 489.289 667.834 490.931 667.834 492.778C667.834 494.625 669.478 496.267 671.327 496.267C673.382 496.267 674.821 494.625 674.821 492.778Z" fill="#F1626C"/>
<path d="M455.565 395.905C459.764 395.905 463.168 392.505 463.168 388.311C463.168 384.117 459.764 380.717 455.565 380.717C451.366 380.717 447.962 384.117 447.962 388.311C447.962 392.505 451.366 395.905 455.565 395.905Z" fill="#56B3AB"/>
<path d="M613.791 135.252C619.351 135.252 623.859 130.75 623.859 125.195C623.859 119.641 619.351 115.139 613.791 115.139C608.23 115.139 603.722 119.641 603.722 125.195C603.722 130.75 608.23 135.252 613.791 135.252Z" fill="white"/>
<path d="M581.529 163.37C581.529 161.112 579.68 159.265 577.419 159.265C575.159 159.265 573.31 161.112 573.31 163.37C573.31 165.627 575.159 167.474 577.419 167.474C579.68 167.474 581.529 165.627 581.529 163.37Z" fill="white"/>
<path d="M195.418 402.473C195.418 398.778 192.541 395.905 188.843 395.905C185.144 395.905 182.267 398.778 182.267 402.473C182.267 406.167 185.144 409.04 188.843 409.04C192.541 409.04 195.418 406.167 195.418 402.473Z" fill="#FFCC69"/>
<path d="M290.559 186.767C290.559 184.92 289.121 183.483 287.271 183.483C285.422 183.483 283.983 184.92 283.983 186.767C283.983 188.614 285.422 190.051 287.271 190.051C289.121 190.256 290.559 188.614 290.559 186.767Z" fill="#FFCC69"/>
</g>
<defs>
<clipPath id="clip0_42_3014">
<rect width="704" height="572" fill="white"/>
</clipPath>
</defs>
</svg>
