<svg width="58" height="58" viewBox="0 0 58 58" fill="none" xmlns="http://www.w3.org/2000/svg">
<path d="M8.70001 44.4667C6.74573 44.4667 4.98318 43.2889 4.23562 41.4829C3.48807 39.6768 3.90051 37.5985 5.28284 36.2145C6.66518 34.8322 8.74512 34.4198 10.5512 35.1673C12.3556 35.9165 13.5333 37.679 13.5333 39.6333C13.5301 42.3013 11.368 44.4634 8.70001 44.4667ZM8.70001 36.7333C7.52712 36.7333 6.47023 37.4406 6.02073 38.5233C5.57123 39.6059 5.81934 40.8529 6.64906 41.6827C7.47879 42.5124 8.72579 42.7605 9.80845 42.311C10.8927 41.8631 11.6 40.8062 11.6 39.6333C11.6 38.0319 10.3015 36.7333 8.70001 36.7333Z" fill="#00928D"/>
<path d="M11.977 50.5309C14.3212 47.3345 17.4 42.5849 17.4 39.6334C17.4 34.829 13.5043 30.9333 8.7 30.9333C3.89567 30.9333 0 34.829 0 39.6334C0 42.5849 3.07722 47.3345 5.423 50.5309C2.64222 50.9885 0 52.113 0 54.1334C0 56.6725 4.37578 58 8.7 58C13.0242 58 17.4 56.6725 17.4 54.1334C17.4 52.113 14.7578 50.9885 11.977 50.5309ZM8.7 32.8667C12.4346 32.8715 15.4618 35.8988 15.4667 39.6334C15.4667 42.5156 11.1054 48.604 8.7 51.6329C6.29461 48.604 1.93333 42.5156 1.93333 39.6334C1.93817 35.8988 4.96544 32.8715 8.7 32.8667ZM8.7 56.0667C4.30489 56.0667 1.93333 54.694 1.93333 54.1334C1.93333 53.7274 3.39783 52.6431 6.76667 52.3096C7.34667 53.0523 7.78811 53.5872 7.95405 53.7854C8.13772 54.0061 8.41 54.1334 8.69678 54.1334C8.98355 54.1334 9.25583 54.0061 9.4395 53.7854C9.60544 53.5856 10.0453 53.0523 10.6269 52.3096C14.0006 52.6431 15.4602 53.7274 15.4602 54.1334C15.4667 54.694 13.0951 56.0667 8.7 56.0667Z" fill="#00928D"/>
<path d="M49.3003 13.5333C47.346 13.5333 45.5834 12.3556 44.8343 10.5495C44.0867 8.74347 44.4991 6.66514 45.8815 5.28119C47.2638 3.89886 49.3421 3.48642 51.1498 4.23397C52.9559 4.98314 54.1336 6.74569 54.1336 8.69997C54.1304 11.368 51.9683 13.5301 49.3003 13.5333ZM49.3003 5.79997C48.1274 5.79997 47.0705 6.50725 46.621 7.58992C46.1731 8.67258 46.4196 9.91958 47.2493 10.7493C48.079 11.579 49.326 11.8271 50.4087 11.3776C51.493 10.9298 52.2003 9.87286 52.2003 8.69997C52.2003 7.09853 50.9017 5.79997 49.3003 5.79997Z" fill="#00928D"/>
<path d="M52.5771 19.5976C54.9213 16.4011 58.0001 11.6516 58.0001 8.7C58.0001 3.89567 54.1044 0 49.3001 0C44.4958 0 40.6001 3.89567 40.6001 8.7C40.6001 11.6516 43.6773 16.4011 46.0231 19.5976C43.2423 20.0567 40.6001 21.1797 40.6001 23.2C40.6001 25.7391 44.9759 27.0667 49.3001 27.0667C53.6243 27.0667 58.0001 25.7391 58.0001 23.2C58.0001 21.1797 55.3579 20.0567 52.5771 19.5976ZM49.3001 1.93333C53.0347 1.93817 56.0619 4.96544 56.0668 8.7C56.0668 11.5823 51.7055 17.6707 49.3001 20.6996C46.8947 17.6707 42.5334 11.5823 42.5334 8.7C42.5383 4.96544 45.5655 1.93817 49.3001 1.93333ZM49.3001 25.1333C44.905 25.1333 42.5334 23.7607 42.5334 23.2C42.5334 22.794 43.9979 21.7097 47.3668 21.3762C47.9468 22.1189 48.3882 22.6522 48.5542 22.852C48.7378 23.0727 49.0101 23.2 49.2969 23.2C49.5837 23.2 49.8559 23.0727 50.0396 22.852C50.2055 22.6522 50.6454 22.1173 51.227 21.3762C54.6007 21.7097 56.0603 22.794 56.0603 23.2C56.0668 23.7607 53.6952 25.1333 49.3001 25.1333Z" fill="#00928D"/>
<path d="M47.3668 52.2H19.3334C18.8002 52.2 18.3668 51.7666 18.3668 51.2334C18.3668 50.7001 18.8002 50.2667 19.3334 50.2667H47.3668C52.1711 50.2667 56.0668 46.371 56.0668 41.5667C56.0668 36.7624 52.1711 32.8667 47.3668 32.8667H22.2334C16.3609 32.8667 11.6001 28.1059 11.6001 22.2334C11.6001 16.3609 16.3609 11.6 22.2334 11.6H38.6668C39.2 11.6 39.6334 12.0334 39.6334 12.5667C39.6334 13.1 39.2 13.5334 38.6668 13.5334H22.2334C17.4291 13.5334 13.5334 17.429 13.5334 22.2334C13.5334 27.0377 17.4291 30.9334 22.2334 30.9334H47.3668C53.2393 30.9334 58.0001 35.6942 58.0001 41.5667C58.0001 47.4392 53.2393 52.2 47.3668 52.2Z" fill="#00928D"/>
</svg>
